HIERARCHY
ROOT Hips
{
	OFFSET -3.958830 18.904000 13.208200
	CHANNELS 6 Xposition Yposition Zposition Zrotation Yrotation Xrotation 
	JOINT LHipJoint
	{
		OFFSET 0.000000 0.000000 0.000000
		CHANNELS 3 Zrotation Yrotation Xrotation
		JOINT LeftUpLeg
		{
			OFFSET 1.800000 -1.400000 0.085000
			CHANNELS 3 Zrotation Yrotation Xrotation
			JOINT LeftLeg
			{
				OFFSET 2.215000 -6.000000 0.000000
				CHANNELS 3 Zrotation Yrotation Xrotation
				JOINT LeftFoot
				{
					OFFSET 2.500000 -6.900000 0.000000
					CHANNELS 3 Zrotation Yrotation Xrotation
					JOINT LeftToeBase
					{
						OFFSET 0.200000 -0.500000 1.950000
						CHANNELS 3 Zrotation Yrotation Xrotation
						End Site
						{
							OFFSET 0.000000 0.000000 0.000000
						}
					}
				}
			}
		}
	}
	JOINT RHipJoint
	{
		OFFSET 0.000000 0.000000 0.000000
		CHANNELS 3 Zrotation Yrotation Xrotation
		JOINT RightUpLeg
		{
			OFFSET -1.800000 -1.400000 0.085000
			CHANNELS 3 Zrotation Yrotation Xrotation
			JOINT RightLeg
			{
				OFFSET -2.215000 -6.000000 0.000000
				CHANNELS 3 Zrotation Yrotation Xrotation
				JOINT RightFoot
				{
					OFFSET -2.500000 -6.900000 0.000000
					CHANNELS 3 Zrotation Yrotation Xrotation
					JOINT RightToeBase
					{
						OFFSET -0.200000 -0.500000 1.950000
						CHANNELS 3 Zrotation Yrotation Xrotation
						End Site
						{
							OFFSET 0.000000 0.000000 0.000000
						}
					}
				}
			}
		}
	}
	JOINT LowerBack
	{
		OFFSET 0.000000 0.000000 0.000000
		CHANNELS 3 Zrotation Yrotation Xrotation
		JOINT Spine
		{
			OFFSET -0.087000 1.940000 -0.288900
			CHANNELS 3 Zrotation Yrotation Xrotation
			JOINT Spine1
			{
				OFFSET 0.000000 1.950000 0.060000
				CHANNELS 3 Zrotation Yrotation Xrotation
				JOINT Neck
				{
					OFFSET 0.000000 0.000000 0.000000
					CHANNELS 3 Zrotation Yrotation Xrotation
					JOINT Neck1
					{
						OFFSET 0.000000 1.600000 0.340000
						CHANNELS 3 Zrotation Yrotation Xrotation
						JOINT Head
						{
							OFFSET 0.000000 1.667000 -0.240000
							CHANNELS 3 Zrotation Yrotation Xrotation
							End Site
							{
								OFFSET 0.000000 0.000000 0.000000
							}
						}
					}
				}
				JOINT LeftShoulder
				{
					OFFSET 0.000000 0.000000 0.000000
					CHANNELS 3 Zrotation Yrotation Xrotation
					JOINT LeftArm
					{
						OFFSET 2.700000 1.550000 -0.730000
						CHANNELS 3 Zrotation Yrotation Xrotation
						JOINT LeftForeArm
						{
							OFFSET 5.450000 0.000000 0.000000
							CHANNELS 3 Zrotation Yrotation Xrotation
							JOINT LeftHand
							{
								OFFSET 3.450000 0.000000 0.000000
								CHANNELS 3 Zrotation Yrotation Xrotation
								JOINT LeftHandIndex1
								{
									OFFSET 0.750000 0.000000 0.000000
									CHANNELS 3 Zrotation Yrotation Xrotation
									End Site
									{
										OFFSET 0.000000 0.000000 0.000000
									}
								}
							}
						}
					}
				}
				JOINT RightShoulder
				{
					OFFSET 0.000000 0.000000 0.000000
					CHANNELS 3 Zrotation Yrotation Xrotation
					JOINT RightArm
					{
						OFFSET -2.700000 1.550000 -0.730000
						CHANNELS 3 Zrotation Yrotation Xrotation
						JOINT RightForeArm
						{
							OFFSET -5.450000 0.000000 0.000000
							CHANNELS 3 Zrotation Yrotation Xrotation
							JOINT RightHand
							{
								OFFSET -3.450000 0.000000 0.000000
								CHANNELS 3 Zrotation Yrotation Xrotation
								JOINT RightHandIndex1
								{
									OFFSET -0.750000 0.000000 0.000000
									CHANNELS 3 Zrotation Yrotation Xrotation
									End Site
									{
										OFFSET 0.000000 0.000000 0.000000
									}
								}
							}
						}
					}
				}
			}
		}
	}
}
MOTION
Frames: 12
Frame Time: 0.016667
-0.695810 15.747730 -0.239580 4.096593 -4.456255 -10.677363 -14.954944 12.749225 3.187663 28.340553 -0.464340 -16.401738 -7.488392 16.469164 43.034778 1.096835 9.721416 1.157248 -0.029770 -0.253630 0.047040 18.625674 -10.853397 2.339999 -29.328508 0.716889 -25.327840 -2.540038 -14.744666 64.403974 -1.266285 -10.358887 0.781034 -0.215670 0.132540 0.139250 -4.383527 -1.133486 -8.082847 15.297616 -3.916393 8.032063 -7.405580 -2.902415 1.235985 3.285950 -0.249582 -9.768936 -2.858639 0.447294 43.022286 -3.835000 1.451930 11.078230 -26.095680 -6.522955 5.065577 -45.909873 9.737868 -6.616442 -6.002975 -6.156978 -0.511114 -3.811592 3.019693 0.043230 0.140780 -0.090040 0.075140 18.660259 6.636631 5.386640 53.024020 -3.912160 -9.249630 1.237749 16.209583 -0.762616 2.650235 -1.342740 0.001520 -0.123950 -0.034190 -0.033160 
-0.747810 15.905540 -0.098900 3.716761 -3.543751 -10.282841 -14.900107 13.088286 2.890722 27.710504 0.074277 -13.469630 -6.998778 14.650356 37.725502 0.997054 8.741463 1.509492 -0.135220 -0.384820 -0.036820 18.584016 -11.243433 2.107416 -28.468975 0.077463 -21.502264 -0.990188 -14.520958 59.351189 -1.068400 -9.710065 0.986296 -0.322400 0.166010 0.155190 -4.390887 -1.017101 -7.679161 15.551510 -3.425439 5.325079 -6.980136 -2.790988 -0.093856 2.989551 -0.872083 -9.683471 -3.720129 0.018265 39.891002 -4.182300 1.188310 13.961000 -19.496854 -0.303257 4.333411 -48.510607 15.752312 -9.797220 -5.544013 -5.156831 -0.668640 -3.894223 2.976489 0.005550 0.159790 -0.126110 0.067170 12.529768 0.978504 5.348891 54.872862 -10.211194 -11.850888 1.393661 14.222733 -0.647339 2.730225 -1.306516 0.014890 -0.182300 -0.000140 -0.005010 
-0.800270 16.085460 0.046500 3.214262 -2.827664 -10.089948 -14.859571 13.415904 2.692231 27.265536 0.515627 -10.218130 -6.769436 13.017792 32.069901 0.881596 7.863672 1.843999 -0.200200 -0.478380 -0.077710 18.522796 -11.570793 1.862317 -27.558443 -0.704583 -16.841234 0.960031 -14.190085 53.051436 -0.861776 -8.916877 1.247205 -0.385920 0.192910 0.159700 -4.356142 -1.032774 -7.315633 15.668186 -3.082456 2.787315 -6.050317 -2.875285 -1.649003 2.552764 -1.477530 -9.375511 -4.637892 -0.074836 37.839859 -4.395990 1.172810 15.469500 -14.035717 5.678910 3.772364 -47.968071 22.090914 -12.573945 -5.070942 -6.073370 -0.804282 -3.941440 2.925021 -0.005130 0.172310 -0.157240 0.055780 7.871178 -4.481458 5.174737 52.903308 -15.653112 -13.256933 0.994523 12.584857 -0.555683 2.781013 -1.254491 0.006430 -0.206140 0.028800 -0.000340 
-0.856520 16.269270 0.175560 2.588643 -2.209065 -10.031168 -14.824040 13.602752 2.585610 26.874072 0.817276 -6.610380 -6.871687 11.466953 25.707080 0.790294 7.061341 2.169688 -0.223130 -0.503820 -0.081030 18.476404 -11.825022 1.660102 -26.692071 -1.632693 -11.830667 2.936704 -13.664531 46.058803 -0.689602 -8.095570 1.540074 -0.405560 0.192610 0.162600 -4.341106 -0.974471 -6.999082 15.690801 -2.740128 0.030364 -5.738047 -2.979978 -2.236090 2.396904 -1.044021 -9.278583 -3.805604 -0.767349 37.084693 -5.211590 1.446760 15.873410 -9.361719 9.349381 3.841458 -44.042445 27.327306 -13.873772 -5.651186 -7.825172 -0.838597 -3.932677 2.912694 -0.011520 0.181360 -0.157510 0.050890 3.431356 -8.488970 5.353607 50.394622 -19.715521 -13.842295 -0.084769 11.210254 -0.511494 2.816553 -1.217699 0.004800 -0.215130 0.029140 -0.000940 
-0.910540 16.468180 0.280160 1.840911 -2.030162 -10.062107 -14.809021 13.737904 2.530216 25.997947 0.888652 -3.591016 -6.259549 10.063120 20.720492 0.717409 6.480321 2.418186 -0.231000 -0.522250 -0.072990 18.434215 -11.965341 1.547386 -25.464099 -2.442691 -7.116985 4.318005 -12.707953 39.038983 -0.549647 -7.305008 1.839805 -0.411400 0.187970 0.158470 -4.301259 -1.009439 -6.737557 15.677598 -2.220067 -2.714284 -5.049229 -2.911138 -2.470930 2.374620 -0.691643 -9.448941 -3.367513 -1.045801 37.794138 -5.342510 1.373760 16.247600 -5.572817 11.344529 3.894756 -39.812358 29.675017 -13.617946 -4.740141 -8.396989 -0.789587 -3.932198 2.913630 -0.000270 0.179740 -0.160250 0.038860 -0.268132 -10.752905 6.011210 46.402535 -23.189126 -13.794009 -1.241470 11.749115 -0.448011 2.806708 -1.212472 -0.005880 -0.214140 0.037490 -0.013160 
-0.950660 16.656690 0.373840 1.350146 -1.554177 -9.803302 -14.816387 13.757322 2.522078 24.733901 0.884679 -0.940686 -6.090806 9.140643 16.800751 0.722350 6.103122 2.579931 -0.206890 -0.492430 -0.050380 18.409984 -11.950032 1.561758 -24.729479 -3.172026 -3.067764 5.811405 -11.925890 32.231286 -0.491846 -6.687825 2.088723 -0.410420 0.145590 0.159790 -4.264066 -1.083700 -6.563205 15.505653 -1.802912 -5.807947 -4.610612 -2.936480 -3.157658 2.547824 -0.466861 -9.862000 -3.314693 -1.051314 40.260805 -5.296270 1.290440 16.448290 -1.097280 13.189190 3.951792 -35.879863 30.348505 -12.908406 -3.617132 -8.692894 -0.675469 -3.895712 2.929764 0.020900 0.149530 -0.122210 0.038160 -5.066309 -12.616593 6.964189 42.201303 -25.735552 -13.434031 -2.100442 13.443167 -0.306169 2.792754 -1.241871 0.016180 -0.226230 0.019320 -0.015190 
-0.999990 16.834750 0.436450 1.271653 -1.690099 -9.284779 -14.843484 13.797630 2.550205 23.144653 0.988608 1.103070 -6.392057 8.745926 14.428610 0.710877 5.956173 2.646264 -0.174960 -0.471070 -0.007360 18.387213 -11.827333 1.621341 -23.689602 -3.367354 -0.510314 6.178792 -10.788036 26.775651 -0.456573 -6.153704 2.298754 -0.398520 0.099790 0.139770 -4.196563 -1.347290 -6.449476 15.432852 -1.585413 -8.550818 -4.185193 -3.043827 -3.896677 2.652905 -1.265098 -10.600475 -5.345602 0.180361 43.527807 -5.093480 1.781080 15.930930 2.783341 14.398442 4.166516 -30.452079 31.453473 -11.879242 -4.024248 -10.597222 -0.490754 -3.798621 2.979381 0.080860 0.103130 -0.089310 0.024240 -9.046240 -12.945082 7.944347 36.405913 -27.346903 -12.727323 -1.347979 18.098282 0.069352 2.692444 -1.344311 0.006270 -0.211060 0.013790 -0.043460 
-1.060960 16.980980 0.491200 1.409066 -1.681076 -9.352571 -14.886948 13.719116 2.450810 21.805964 1.248674 3.357699 -6.478169 8.778035 14.137460 0.722864 5.999358 2.642341 -0.113360 -0.388940 0.028960 18.383582 -11.713201 1.756700 -23.258609 -3.458273 2.242105 6.879073 -10.021333 21.838599 -0.484031 -5.946246 2.393461 -0.341310 0.078730 0.145890 -4.124411 -1.319257 -6.288315 14.263446 -1.470766 -10.895670 -3.650744 -3.233255 -3.504107 2.486530 -0.979485 -10.507974 -4.947518 0.619586 45.490029 -4.715420 2.143830 14.468550 5.105622 14.695423 4.170181 -23.785778 30.811619 -9.934093 -5.432521 -12.091698 -0.217166 -3.706148 3.114216 0.091520 0.095780 -0.064540 0.033310 -10.862364 -13.539440 7.889892 31.410085 -26.136805 -11.213425 -3.732810 21.357894 0.221791 2.635927 -1.510738 0.015860 -0.199490 -0.007530 -0.050430 
-1.119460 17.104850 0.523680 1.225713 -2.189854 -9.759785 -14.936120 13.685920 2.342434 21.091612 1.535695 5.292351 -6.538509 9.253616 15.645025 0.707540 6.242559 2.555525 -0.052610 -0.322870 0.092280 18.373723 -11.625759 1.863472 -22.187451 -3.386808 4.264176 6.653539 -9.235002 18.619101 -0.520800 -5.806568 2.454652 -0.277940 0.053160 0.139480 -4.027768 -1.292928 -6.137595 13.375262 -1.303530 -12.649234 -2.597220 -3.372561 -2.661325 2.520677 -0.800526 -10.447860 -4.857804 1.009962 48.177500 -5.197640 2.778030 12.559010 4.749514 13.686886 3.941177 -17.980905 29.801356 -7.816034 -4.550665 -12.829728 -0.066625 -3.679389 3.152270 0.128210 0.085680 -0.042300 0.024550 -10.277393 -12.763351 7.720777 25.805733 -24.513025 -9.299521 -8.946208 25.708645 0.009782 2.592847 -1.668984 -0.001940 -0.161990 -0.016280 -0.083020 
-1.182730 17.204950 0.546980 0.969758 -2.800645 -9.872465 -14.994117 13.721589 2.203898 20.433687 1.757844 6.379511 -6.068153 9.892143 18.870858 0.717615 6.531064 2.441575 -0.003890 -0.269230 0.138420 18.337774 -11.565790 1.980854 -21.211106 -3.265596 5.231767 6.844779 -8.775382 16.438973 -0.548352 -5.722045 2.484499 -0.232610 0.026610 0.138110 -3.877090 -1.297399 -6.031228 12.318259 -1.123105 -14.064781 -0.999241 -3.441164 -2.141176 2.600240 -0.858897 -10.733657 -5.270145 1.476725 50.494083 -5.696200 3.252050 11.522360 3.651084 11.843398 3.783663 -12.694949 28.568652 -5.827707 -3.044049 -12.880482 0.006941 -3.674430 3.173721 0.150390 0.074840 -0.022780 0.020770 -8.953572 -10.878146 7.713712 19.508453 -23.839578 -7.209149 -14.497319 30.825094 -0.656021 2.568716 -1.814500 -0.006120 -0.147270 -0.028730 -0.103140 
-1.237180 17.300620 0.542070 0.863604 -3.986504 -10.137990 -15.032236 13.736724 2.087597 19.518213 2.044771 6.734608 -5.788132 10.767469 23.026285 0.746432 6.900913 2.287107 0.036810 -0.225970 0.186570 18.310239 -11.584521 2.057121 -20.692888 -3.024284 5.537699 6.797286 -8.467057 15.392536 -0.566883 -5.649936 2.501510 -0.198370 -0.012570 0.125000 -3.761264 -1.145732 -5.928746 11.228526 -0.591452 -15.157156 0.868414 -3.120864 -1.479539 2.637030 -0.802093 -11.371705 -5.509807 1.825229 54.270216 -6.002330 3.425580 10.948160 2.869910 9.200628 3.967336 -8.812675 26.880977 -4.408395 -3.055726 -13.602705 0.175869 -3.637682 3.178460 0.184990 0.049650 0.004870 0.008540 -7.812945 -8.281030 7.786109 14.735203 -21.720686 -5.312884 -20.049344 31.329334 -1.553624 2.583722 -1.782607 -0.011880 -0.128340 -0.038150 -0.126940 
-1.288290 17.321650 0.493280 0.484212 -5.127277 -10.716259 -15.058091 13.813887 2.039567 18.842908 2.019182 6.579779 -5.015908 11.563140 27.862359 0.818455 7.384725 2.116159 0.055330 -0.192210 0.193820 18.272187 -11.645178 2.077710 -20.190101 -2.866966 5.263424 6.793498 -8.454318 16.014241 -0.554224 -5.645993 2.503610 -0.166510 -0.003210 0.125660 -3.649804 -1.112529 -5.951597 10.358504 -0.454848 -13.996726 2.642311 -3.072467 0.025954 2.434352 -0.613277 -11.650532 -5.037128 1.888327 53.831657 -6.034930 3.767320 10.198790 2.639195 6.427991 4.318500 -6.073457 24.050011 -3.371489 -5.458658 -11.307241 0.052743 -3.645018 3.142359 0.169330 0.066520 -0.001400 0.013880 -6.862291 -5.836601 7.560510 11.561064 -18.213562 -4.171795 -25.196298 29.360783 -2.449195 2.587452 -1.749124 -0.014680 -0.116560 -0.043570 -0.127320 
